<svg width="100" height="100" viewBox="0 0 100 100" fill="none" xmlns="http://www.w3.org/2000/svg">
<path d="M100 50C100 22.3858 77.6142 0 50 0C22.3858 0 0 22.3858 0 50C0 77.6142 22.3858 100 50 100C77.6142 100 100 77.6142 100 50Z" fill="#18AFAC"/>
<path fill-rule="evenodd" clip-rule="evenodd" d="M52.399 36.77C50.805 41.742 51.237 47.213 51.652 49.326C48.041 54.146 42.686 60.995 33.596 64.546C24.506 68.097 13.798 63.786 11.307 56.429C8.64497 48.565 13.424 40.702 21.642 40.955C29.861 41.209 37.415 47.745 40.943 51.609L48.663 47.297L47.543 45.648C43.309 47.931 42.811 47.622 37.83 43.365C26.997 34.107 14.047 37.912 9.56397 45.902C5.08097 53.892 9.93797 71.268 27.993 69.366C37.222 68.393 45.995 60.296 52.168 51.766L52.15 51.863C55.537 61.401 54.225 66.829 53.146 68.351L54.64 69.366C58.168 64.926 66.295 54.755 70.579 49.58C68.885 56.48 68.129 66.068 67.964 70L76.929 66.195L75.684 64.419C70.876 68.591 72.892 58.819 74.246 52.259C74.407 51.481 74.558 50.747 74.688 50.087C77.751 34.487 89.63 30.809 86.518 38.038L88.51 38.418C89.3101 35.5774 90.1402 32.7452 91 29.922C85.272 29.034 78.299 36.391 76.805 38.42C75.31 40.45 60.244 58.967 58.251 61.25C58.251 59.423 56.259 51.103 55.263 47.171L55.241 47.149C59.249 40.576 61.459 34.467 60.866 31.951C59.372 25.61 54.391 30.556 52.399 36.771V36.77ZM54.765 43.619C54.433 41.717 54.117 37.151 55.512 34.107C57.255 30.302 59.745 35.121 54.765 43.619Z" fill="#FEFEFE"/>
</svg>
