<svg width="25" height="25" viewBox="0 0 25 25" fill="none" xmlns="http://www.w3.org/2000/svg">
<path d="M17.1 14.3375C16.9 14.2375 15.6 13.6375 15.4 13.5375C15.2 13.4375 15 13.4375 14.8 13.6375C14.6 13.8375 14.2 14.4375 14 14.6375C13.9 14.8375 13.7 14.8375 13.5 14.7375C12.8 14.4375 12.1 14.0375 11.5 13.5375C11 13.0375 10.5 12.4375 10.1 11.8375C10 11.6375 10.1 11.4375 10.2 11.3375C10.3 11.2375 10.4 11.0375 10.6 10.9375C10.7 10.8375 10.8 10.6375 10.8 10.5375C10.9 10.4375 10.9 10.2375 10.8 10.1375C10.7 10.0375 10.2 8.8375 10 8.3375C9.9 7.6375 9.7 7.6375 9.5 7.6375C9.4 7.6375 9.2 7.6375 9 7.6375C8.8 7.6375 8.5 7.8375 8.4 7.9375C7.8 8.5375 7.5 9.2375 7.5 10.0375C7.6 10.9375 7.9 11.8375 8.5 12.6375C9.6 14.2375 11 15.5375 12.7 16.3375C13.2 16.5375 13.6 16.7375 14.1 16.8375C14.6 17.0375 15.1 17.0375 15.7 16.9375C16.4 16.8375 17 16.3375 17.4 15.7375C17.6 15.3375 17.6 14.9375 17.5 14.5375C17.5 14.5375 17.3 14.4375 17.1 14.3375ZM19.6 5.2375C15.7 1.3375 9.4 1.3375 5.5 5.2375C2.3 8.4375 1.7 13.3375 3.9 17.2375L2.5 22.3375L7.8 20.9375C9.3 21.7375 10.9 22.1375 12.5 22.1375C18 22.1375 22.4 17.7375 22.4 12.2375C22.5 9.6375 21.4 7.1375 19.6 5.2375ZM16.9 19.2375C15.6 20.0375 14.1 20.5375 12.5 20.5375C11 20.5375 9.6 20.1375 8.3 19.4375L8 19.2375L4.9 20.0375L5.7 17.0375L5.5 16.7375C3.1 12.7375 4.3 7.7375 8.2 5.2375C12.1 2.7375 17.1 4.0375 19.5 7.8375C21.9 11.7375 20.8 16.8375 16.9 19.2375Z" fill="#F9F9F9"/>
</svg>
